<svg xmlns="http://www.w3.org/2000/svg" viewBox="0 0 247.05 36.25"><defs><style>.cls-1{isolation:isolate;}.cls-2{fill:#fff;fill-rule:evenodd;}</style></defs><title>logo-culturaocio-n-blanco</title><g id="CulturaOcio_copia" data-name="CulturaOcio copia" class="cls-1"><g id="CulturaOcio_copia-2" data-name="CulturaOcio copia"><path class="cls-2" d="M461.6,274.8a3.28,3.28,0,0,0,2.45-.95,3.32,3.32,0,0,0,.95-2.45,3.24,3.24,0,0,0-.95-2.42,3.35,3.35,0,0,0-2.45-.93,17.9,17.9,0,1,0,0,35.8,3.38,3.38,0,0,0,2.45-.92,3.26,3.26,0,0,0,.95-2.43,3.26,3.26,0,0,0-3.4-3.4,11.15,11.15,0,1,1,0-22.3Zm24.3,3.5a3.35,3.35,0,0,0-2.45.93,3.24,3.24,0,0,0-.95,2.42V293a3.94,3.94,0,0,1-1.15,2.88A3.85,3.85,0,0,1,478.5,297a4,4,0,0,1-4.05-4.05v-11.2a3.26,3.26,0,0,0-3.4-3.4,3.26,3.26,0,0,0-2.43.95,3.4,3.4,0,0,0-.92,2.45V293a10.78,10.78,0,1,0,21.55,0v-11.3a3.19,3.19,0,0,0-3.35-3.35Zm10.65-10.15a3.19,3.19,0,0,0-3.35,3.35v28.9a3.18,3.18,0,0,0,3.35,3.35,3.38,3.38,0,0,0,2.45-.92,3.26,3.26,0,0,0,.95-2.43V271.5Q500,268.15,496.55,268.15Zm25.35,17q3.35,0,3.35-3.4a3.19,3.19,0,0,0-3.35-3.35H510.45v-2.65a3.26,3.26,0,0,0-3.4-3.4,3.26,3.26,0,0,0-2.43.95,3.4,3.4,0,0,0-.92,2.45V293a10.78,10.78,0,1,0,21.55,0v-.45a3.25,3.25,0,0,0-3.35-3.35,3.36,3.36,0,0,0-2.43,1,3.23,3.23,0,0,0-1,2.4V293a3.94,3.94,0,0,1-1.15,2.88A3.85,3.85,0,0,1,514.5,297a4,4,0,0,1-4.05-4.05v-7.8Zm25.5-6.85a3.35,3.35,0,0,0-2.45.93,3.24,3.24,0,0,0-1,2.42V293a3.94,3.94,0,0,1-1.15,2.88A3.85,3.85,0,0,1,540,297a4,4,0,0,1-4-4.05v-11.2a3.26,3.26,0,0,0-3.4-3.4,3.22,3.22,0,0,0-2.42.95,3.37,3.37,0,0,0-.93,2.45V293a10.78,10.78,0,1,0,21.55,0v-11.3a3.18,3.18,0,0,0-3.35-3.35Zm16.6,0a10.53,10.53,0,0,0-7.68,3.1,10.37,10.37,0,0,0-3.12,7.65V300.4a3.18,3.18,0,0,0,3.35,3.35,3.38,3.38,0,0,0,2.45-.92,3.26,3.26,0,0,0,1-2.43V289.05a3.66,3.66,0,0,1,1.12-2.77,4.56,4.56,0,0,1,2.83-1.23q3.45-.3,3.45-3.4A3.25,3.25,0,0,0,564,278.3Zm17.45,0a12.78,12.78,0,1,0,0,25.55,3.28,3.28,0,0,0,2.45-1,3.32,3.32,0,0,0,1-2.45,3.24,3.24,0,0,0-1-2.42,3.35,3.35,0,0,0-2.45-.93,5.75,5.75,0,0,1-4.25-1.77,5.86,5.86,0,0,1-1.75-4.28,6,6,0,0,1,6-6,5.87,5.87,0,0,1,4.27,1.75,5.74,5.74,0,0,1,1.78,4.25v9.35a3.16,3.16,0,0,0,3.35,3.35,3.38,3.38,0,0,0,2.45-.92,3.26,3.26,0,0,0,1-2.43v-9.35a12.26,12.26,0,0,0-3.7-9.07A12.42,12.42,0,0,0,581.45,278.3Zm35.65-10.25a17.76,17.76,0,1,0,12.7,5.2A17.31,17.31,0,0,0,617.1,268.05ZM625,293.88a11.34,11.34,0,1,1,3.23-7.93A10.75,10.75,0,0,1,625,293.88ZM650,285a3.34,3.34,0,0,0,2.45-.92,3.26,3.26,0,0,0,1-2.43,3.26,3.26,0,0,0-3.4-3.4,12.78,12.78,0,1,0,0,25.55,3.38,3.38,0,0,0,2.45-.92,3.26,3.26,0,0,0,1-2.43A3.26,3.26,0,0,0,650,297a6,6,0,0,1-6-6,5.85,5.85,0,0,1,1.75-4.27A5.76,5.76,0,0,1,650,285Zm9.6-17.35a4.15,4.15,0,0,0,0,8.3,4.15,4.15,0,0,0,0-8.3Zm0,10.7a3.18,3.18,0,0,0-3.35,3.35V300.4a3.16,3.16,0,0,0,3.35,3.35,3.38,3.38,0,0,0,2.45-.92,3.26,3.26,0,0,0,1-2.43V281.65Q663,278.31,659.55,278.3Zm27.5,3.68a13.05,13.05,0,0,0-18.17,0,12.79,12.79,0,1,0,18.17,0Zm-4.83,13.35A5.81,5.81,0,0,1,678,297.1a5.75,5.75,0,0,1-4.25-1.77,5.86,5.86,0,0,1-1.75-4.28,6,6,0,0,1,6-6,5.87,5.87,0,0,1,4.27,1.75,5.74,5.74,0,0,1,1.78,4.25A5.81,5.81,0,0,1,682.22,295.33Z" transform="translate(-443.7 -267.6)"/></g></g></svg>